# File created by Blade
# Date/Time:  Wed Apr 08 17:04:14 2015
#---------------------------------------------------------
:version 1.10
:name HOM
:units
  mass 1.0
  length 1.000000
  angle deg
:documentation
     Acclaim Skeleton File
:root
   axis xyz
   order TX TY TZ RX RY RZ
   position 0.000000 0.000000 0.000000
   orientation 0 0 0
:bonedata
   begin
      id 1
      name Spine_dum
      direction 0.000000 1.000000 0.000000
      length 5.893853
      axis 0.0 0.0 0.0 xyz
   end
   begin
      id 2
      name LeftUpLeg_dum
      direction 1.000000 0.000000 0.000000
      length 3.697939
      axis 0.0 0.0 0.0 xyz
   end
   begin
      id 3
      name RightUpLeg_dum
      direction -1.000000 0.000000 0.000000
      length 3.697939
      axis 0.0 0.0 0.0 xyz
   end
   begin
      id 4
      name Spine
      direction 0.000000 1.000000 0.000000
      length 0.000000
      axis 0.0 0.0 0.0 xyz
      dof rx ry rz
   end
   begin
      id 5
      name Spine_dum1
      direction 0.000000 1.000000 0.000000
      length 16.447146
      axis 0.0 0.0 0.0 xyz
   end
   begin
      id 6
      name Spine_dum2
      direction 0.000000 1.000000 0.000000
      length 10.900383
      axis 0.0 0.0 0.0 xyz
   end
   begin
      id 7
      name Spine_dum3
      direction 0.000000 1.000000 0.000000
      length 10.900383
      axis 0.0 0.0 0.0 xyz
   end
   begin
      id 8
      name Head
      direction 0.000000 1.000000 0.000000
      length 4.527550
      axis 0.0 0.0 0.0 xyz
      dof rx ry rz
   end
   begin
      id 9
      name LeftShoulder
      direction 1.000000 0.000000 0.000000
      length 8.219464
      axis 0.0 0.0 -90.0 xyz
      dof rx ry rz
   end
   begin
      id 10
      name LeftArm
      direction 1.000000 0.000000 0.000000
      length 11.094937
      axis 0.0 0.0 -90.0 xyz
      dof rx ry rz
   end
   begin
      id 11
      name LeftForeArm
      direction 1.000000 0.000000 0.000000
      length 9.103875
      axis 0.0 0.0 -90.0 xyz
      dof ry rz rx
   end
   begin
      id 12
      name LeftHand
      direction 0.000000 0.000000 0.000000
      length 0.000000
      axis 0.0 0.0 -90.0 xyz
      dof rx ry rz
   end
   begin
      id 13
      name LeftHand_dum1
      direction 0.000000 0.000000 0.000000
      length 0.000000
      axis 0.0 0.0 -90.0 xyz
   end
   begin
      id 14
      name LeftHand_dum2
      direction 1.000000 0.000000 0.000000
      length 3.937000
      axis 0.0 0.0 -90.0 xyz
   end
   begin
      id 15
      name LeftHandThumb1
      direction 0.000000 0.000000 1.000000
      length 3.937000
      axis 0.0 0.0 -90.0 xyz
      dof rx rz ry
   end
   begin
      id 16
      name RightShoulder
      direction -1.000000 0.000000 0.000000
      length 8.219464
      axis 0.0 0.0 90.0 xyz
      dof rx ry rz
   end
   begin
      id 17
      name RightArm
      direction -1.000000 0.000000 0.000000
      length 11.094937
      axis 0.0 0.0 90.0 xyz
      dof rx ry rz
   end
   begin
      id 18
      name RightForeArm
      direction -1.000000 0.000000 0.000000
      length 9.103875
      axis 0.0 0.0 90.0 xyz
      dof ry rz rx
   end
   begin
      id 19
      name RightHand
      direction 0.000000 0.000000 0.000000
      length 0.000000
      axis 0.0 0.0 90.0 xyz
      dof rx ry rz
   end
   begin
      id 20
      name RightHand_dum1
      direction 0.000000 0.000000 0.000000
      length 0.000000
      axis 0.0 0.0 90.0 xyz
   end
   begin
      id 21
      name RightHand_dum2
      direction -1.000000 0.000000 0.000000
      length 3.937000
      axis 0.0 0.0 90.0 xyz
   end
   begin
      id 22
      name RightHandThumb1
      direction 0.000000 0.000000 1.000000
      length 3.937000
      axis 0.0 0.0 90.0 xyz
      dof rx rz ry
   end
   begin
      id 23
      name LeftUpLeg
      direction 0.000000 -1.000000 0.000000
      length 16.181467
      axis 0.0 0.0 0.0 xyz
      dof rx ry rz
   end
   begin
      id 24
      name LeftLeg
      direction 0.000000 -1.000000 0.000000
      length 16.501392
      axis 0.0 0.0 0.0 xyz
      dof rx ry rz
   end
   begin
      id 25
      name LeftFoot
      direction 0.000000 -0.258819 0.965926
      length 6.408245
      axis 15.0 0.0 0.0 xyz
      dof rx ry rz
   end
   begin
      id 26
      name LeftToeBase
      direction 0.000000 0.000000 1.000000
      length 2.952750
      axis 0.0 0.0 0.0 xyz
      dof rx ry rz
   end
   begin
      id 27
      name RightUpLeg
      direction 0.000000 -1.000000 0.000000
      length 16.181467
      axis 0.0 0.0 0.0 xyz
      dof rx ry rz
   end
   begin
      id 28
      name RightLeg
      direction 0.000000 -1.000000 0.000000
      length 16.501392
      axis 0.0 0.0 0.0 xyz
      dof rx ry rz
   end
   begin
      id 29
      name RightFoot
      direction 0.000000 -0.258819 0.965926
      length 6.408245
      axis 15.0 0.0 0.0 xyz
      dof rx ry rz
   end
   begin
      id 30
      name RightToeBase
      direction 0.000000 0.000000 1.000000
      length 2.952750
      axis 0.0 0.0 0.0 xyz
      dof rx ry rz
   end
:hierarchy
   begin
      root Spine_dum LeftUpLeg_dum RightUpLeg_dum
      Spine_dum Spine
      LeftUpLeg_dum LeftUpLeg
      RightUpLeg_dum RightUpLeg
      Spine Spine_dum1 Spine_dum2 Spine_dum3
      Spine_dum1 Head
      Spine_dum2 LeftShoulder
      Spine_dum3 RightShoulder
      LeftShoulder LeftArm
      LeftArm LeftForeArm
      LeftForeArm LeftHand
      LeftHand LeftHand_dum1 LeftHand_dum2
      LeftHand_dum1 LeftHandThumb1
      RightShoulder RightArm
      RightArm RightForeArm
      RightForeArm RightHand
      RightHand RightHand_dum1 RightHand_dum2
      RightHand_dum1 RightHandThumb1
      LeftUpLeg LeftLeg
      LeftLeg LeftFoot
      LeftFoot LeftToeBase
      RightUpLeg RightLeg
      RightLeg RightFoot
      RightFoot RightToeBase
   end

# File created by Blade
# Date/Time:  Wed Apr 08 17:04:22 2015
# Frame Rate: 120.000 fps
#------------------------------------------------------
:FULLY-SPECIFIED
:DEGREES
438
root 3.823828 35.939411 3.585871 -156.008386 -73.438207 178.969561
Spine -20.254050 -16.882250 -6.068115
Head 51.698670 -12.910214 -11.983279
LeftShoulder 17.516256 -8.666462 31.260534
LeftArm 107.494324 40.723274 -39.459400
LeftForeArm 11.956793 -0.000000 91.147908
LeftHand -16.952546 -0.000000 -3.557925
LeftHandThumb1 -26.253704 0.000000 33.147579
RightShoulder -12.890009 -71.687065 -17.561203
RightArm 55.863703 -34.787426 2.689802
RightForeArm -16.679021 0.000000 77.019710
RightHand -0.097933 0.000000 33.809150
RightHandThumb1 -24.326973 -0.000000 -32.862282
LeftUpLeg -24.459504 16.294986 -3.264942
LeftLeg 16.904040 -0.000000 -0.000000
LeftFoot -18.086794 12.742675 -15.833271
LeftToeBase 9.282328 -0.000000 -0.000000
RightUpLeg -31.024224 0.102436 -10.201696
RightLeg 16.515902 -0.000000 -0.000000
RightFoot -9.287456 5.242842 18.692930
RightToeBase 13.135664 -0.000000 -0.000000
439
root 3.816589 35.939259 3.586464 -155.869616 -73.520539 178.876795
Spine -20.306143 -16.871857 -5.985856
Head 51.708370 -12.872919 -12.006854
LeftShoulder 17.492167 -8.701829 31.281683
LeftArm 107.531498 40.784373 -39.485038
LeftForeArm 11.928351 -0.000000 91.146652
LeftHand -16.793992 -0.000000 -4.024094
LeftHandThumb1 -26.253704 0.000000 33.147579
RightShoulder -13.492944 -71.919460 -16.929047
RightArm 55.724460 -34.768226 3.167239
RightForeArm -15.352315 -0.000000 78.781391
RightHand -0.219086 -0.000000 33.753901
RightHandThumb1 -24.326973 -0.000000 -32.862282
LeftUpLeg -24.506948 16.237198 -3.282948
LeftLeg 16.903743 -0.000000 -0.000000
LeftFoot -18.075506 12.719977 -15.854201
LeftToeBase 9.261580 -0.000000 -0.000000
RightUpLeg -31.056005 0.065038 -10.218858
RightLeg 16.554592 -0.000000 -0.000000
RightFoot -9.334824 5.214323 18.736164
RightToeBase 13.143655 -0.000000 -0.000000
440
root 3.809507 35.940797 3.588360 -155.723967 -73.613901 178.795736
Spine -20.390744 -16.862956 -5.894843
Head 51.742410 -12.863586 -12.004220
LeftShoulder 17.475000 -8.683168 31.291146
LeftArm 107.645490 40.729349 -39.379917
LeftForeArm 11.840862 -0.000000 91.135251
LeftHand -16.620802 -0.000000 -4.192745
LeftHandThumb1 -26.253704 0.000000 33.147579
RightShoulder -14.189811 -72.175695 -16.183408
RightArm 55.680364 -34.726082 3.479134
RightForeArm -13.860400 -0.000000 80.435964
RightHand -0.304644 -0.000000 33.793414
RightHandThumb1 -24.326973 -0.000000 -32.862282
LeftUpLeg -24.581252 16.176639 -3.302446
LeftLeg 16.910487 -0.000000 -0.000000
LeftFoot -18.044050 12.686332 -15.848570
LeftToeBase 9.240272 -0.000000 -0.000000
RightUpLeg -31.100539 0.011612 -10.228538
RightLeg 16.583252 -0.000000 -0.000000
RightFoot -9.360020 5.167593 18.749579
RightToeBase 13.088680 -0.000000 -0.000000
441
root 3.803286 35.943264 3.590660 -155.547734 -73.710441 178.717759
Spine -20.520592 -16.869900 -5.774723
Head 51.776313 -12.838632 -12.047367
LeftShoulder 17.443012 -8.677089 31.286787
LeftArm 107.712830 40.720484 -39.330084
LeftForeArm 11.722497 -0.000000 91.142720
LeftHand -16.446150 -0.000000 -4.494803
LeftHandThumb1 -26.253704 0.000000 33.147579
RightShoulder -14.862871 -72.405484 -15.479408
RightArm 55.697774 -34.751979 3.777957
RightForeArm -13.123564 -0.000000 82.019202
RightHand -0.401499 -0.000000 33.902346
RightHandThumb1 -24.326973 -0.000000 -32.862282
LeftUpLeg -24.689663 16.112362 -3.329579
LeftLeg 16.911290 -0.000000 -0.000000
LeftFoot -18.009078 12.654308 -15.827999
LeftToeBase 9.256656 -0.000000 -0.000000
RightUpLeg -31.183096 -0.070675 -10.223960
RightLeg 16.619806 -0.000000 -0.000000
RightFoot -9.378813 5.122281 18.726736
RightToeBase 13.047788 -0.000000 -0.000000
442
root 3.796660 35.945418 3.594280 -155.381608 -73.807489 178.642317
Spine -20.637364 -16.872734 -5.661015
Head 51.821045 -12.854989 -12.090870
LeftShoulder 17.424057 -8.647469 31.284452
LeftArm 107.790702 40.699922 -39.281186
LeftForeArm 11.711037 0.000000 91.134163
LeftHand -16.278244 -0.000000 -4.799940
LeftHandThumb1 -26.253704 0.000000 33.147579
RightShoulder -15.503100 -72.562037 -14.787062
RightArm 55.772854 -34.854510 3.959283
RightForeArm -12.719701 0.000000 83.624911
RightHand -0.558895 -0.000000 34.109139
RightHandThumb1 -24.326973 -0.000000 -32.862282
LeftUpLeg -24.785048 16.042973 -3.354542
LeftLeg 16.908921 -0.000000 -0.000000
LeftFoot -17.987902 12.638019 -15.833606
LeftToeBase 9.242823 -0.000000 -0.000000
RightUpLeg -31.248425 -0.137947 -10.226281
RightLeg 16.638449 -0.000000 -0.000000
RightFoot -9.399790 5.062492 18.701572
RightToeBase 13.008847 -0.000000 -0.000000
443
root 3.788518 35.947585 3.597622 -155.224970 -73.914499 178.590853
Spine -20.796091 -16.903776 -5.506904
Head 51.868413 -12.808646 -12.177351
LeftShoulder 17.423830 -8.657068 31.253357
LeftArm 107.767502 40.725656 -39.294742
LeftForeArm 11.660114 -0.000000 91.147847
LeftHand -16.118358 -0.000000 -5.100717
LeftHandThumb1 -26.253704 0.000000 33.147579
RightShoulder -16.019395 -72.755852 -14.220136
RightArm 55.847505 -34.929886 4.134419
RightForeArm -12.692318 -0.000000 85.275661
RightHand -0.786681 -0.000000 34.380582
RightHandThumb1 -24.326973 -0.000000 -32.862282
LeftUpLeg -24.895091 15.989045 -3.379217
LeftLeg 16.907638 -0.000000 -0.000000
LeftFoot -17.975482 12.602603 -15.848128
LeftToeBase 9.318899 -0.000000 -0.000000
RightUpLeg -31.315916 -0.221309 -10.213782
RightLeg 16.646471 -0.000000 -0.000000
RightFoot -9.424135 5.009221 18.693788
RightToeBase 12.990393 -0.000000 -0.000000
444
root 3.781144 35.949972 3.602547 -155.040944 -74.005594 178.525862
Spine -20.982999 -16.960071 -5.327723
Head 51.893885 -12.716350 -12.302540
LeftShoulder 17.375847 -8.620214 31.212607
LeftArm 107.783949 40.732411 -39.256781
LeftForeArm 11.723568 -0.000000 91.164936
LeftHand -15.950410 -0.000000 -5.412644
LeftHandThumb1 -26.253704 0.000000 33.147579
RightShoulder -16.309380 -72.912829 -13.888948
RightArm 55.937364 -35.045020 4.301051
RightForeArm -12.973687 -0.000000 86.917414
RightHand -1.095430 -0.000000 34.700757
RightHandThumb1 -24.326973 -0.000000 -32.862282
LeftUpLeg -25.012922 15.926375 -3.414142
LeftLeg 16.890866 -0.000000 -0.000000
LeftFoot -17.942881 12.582285 -15.831975
LeftToeBase 9.285165 -0.000000 -0.000000
RightUpLeg -31.396631 -0.285336 -10.216986
RightLeg 16.642514 -0.000000 -0.000000
RightFoot -9.447499 4.946847 18.694040
RightToeBase 12.998691 -0.000000 -0.000000
445
root 3.774750 35.951827 3.607663 -154.823558 -74.109691 178.455500
Spine -21.202684 -17.025392 -5.136556
Head 51.917321 -12.655937 -12.439480
LeftShoulder 17.328559 -8.598545 31.203989
LeftArm 107.828070 40.737557 -39.205901
LeftForeArm 11.800725 -0.000000 91.185397
LeftHand -15.855474 0.000000 -5.602939
LeftHandThumb1 -26.253704 0.000000 33.147579
RightShoulder -16.615805 -73.105192 -13.548482
RightArm 56.004086 -35.122664 4.485435
RightForeArm -13.294787 -0.000000 88.500037
RightHand -1.318019 -0.000000 34.871989
RightHandThumb1 -24.326973 -0.000000 -32.862282
LeftUpLeg -25.168587 15.868386 -3.457821
LeftLeg 16.884639 -0.000000 -0.000000
LeftFoot -17.920034 12.534820 -15.823928
LeftToeBase 9.309437 -0.000000 -0.000000
RightUpLeg -31.503376 -0.373156 -10.213770
RightLeg 16.638325 -0.000000 -0.000000
RightFoot -9.463743 4.899014 18.699547
RightToeBase 12.950467 -0.000000 -0.000000
446
root 3.765593 35.953083 3.612511 -154.688007 -74.186785 178.397486
Spine -21.335922 -17.046373 -5.002513
Head 51.945009 -12.617510 -12.485577
LeftShoulder 17.304896 -8.567155 31.233801
LeftArm 107.895807 40.712703 -39.136151
LeftForeArm 11.849854 -0.000000 91.176732
LeftHand -15.753205 0.000000 -5.869159
LeftHandThumb1 -26.253704 0.000000 33.147579
RightShoulder -17.024238 -73.297754 -13.067897
RightArm 56.047650 -35.169287 4.638246
RightForeArm -13.368786 -0.000000 89.986826
RightHand -1.445132 -0.000000 34.916937
RightHandThumb1 -24.326973 -0.000000 -32.862282
LeftUpLeg -25.234725 15.826886 -3.482568
LeftLeg 16.862513 -0.000000 -0.000000
LeftFoot -17.903281 12.491155 -15.819278
LeftToeBase 9.309808 -0.000000 -0.000000
RightUpLeg -31.539972 -0.411425 -10.223296
RightLeg 16.628185 -0.000000 -0.000000
RightFoot -9.497823 4.838192 18.699694
RightToeBase 13.013815 -0.000000 -0.000000
447
root 3.757089 35.952871 3.617141 -154.552022 -74.274472 178.335211
Spine -21.460852 -17.075831 -4.863868
Head 51.957668 -12.593595 -12.544826
LeftShoulder 17.290524 -8.570723 31.263840
LeftArm 107.936740 40.709608 -39.084665
LeftForeArm 11.816160 0.000000 91.173576
LeftHand -15.647116 -0.000000 -6.163679
LeftHandThumb1 -26.253704 0.000000 33.147579
RightShoulder -17.512975 -73.518514 -12.510606
RightArm 56.080646 -35.155388 4.767405
RightForeArm -13.122426 -0.000000 91.344364
RightHand -1.538123 0.000000 34.847722
RightHandThumb1 -24.326973 -0.000000 -32.862282
LeftUpLeg -25.304528 15.765148 -3.497894
LeftLeg 16.857992 -0.000000 -0.000000
LeftFoot -17.912224 12.446323 -15.834961
LeftToeBase 9.349337 -0.000000 -0.000000
RightUpLeg -31.571034 -0.460841 -10.231877
RightLeg 16.619210 -0.000000 -0.000000
RightFoot -9.537323 4.790987 18.723668
RightToeBase 12.951934 -0.000000 -0.000000
448
root 3.746344 35.951939 3.624220 -154.427686 -74.329585 178.245078
Spine -21.540985 -17.077509 -4.760860
Head 51.972033 -12.573120 -12.523851
LeftShoulder 17.278625 -8.573665 31.287476
LeftArm 107.988231 40.692637 -39.017193
LeftForeArm 11.728033 -0.000000 91.157033
LeftHand -15.538721 -0.000000 -6.416786
LeftHandThumb1 -26.253704 0.000000 33.147579
RightShoulder -17.958035 -73.648644 -11.993230
RightArm 56.115818 -35.173997 4.864947
RightForeArm -12.457478 -0.000000 92.584713
RightHand -1.588980 0.000000 34.797714
RightHandThumb1 -24.326973 -0.000000 -32.862282
LeftUpLeg -25.331507 15.750464 -3.534716
LeftLeg 16.849610 -0.000000 -0.000000
LeftFoot -17.901753 12.407022 -15.799951
LeftToeBase 9.354226 -0.000000 -0.000000
RightUpLeg -31.572388 -0.466108 -10.271260
RightLeg 16.616588 -0.000000 -0.000000
RightFoot -9.588643 4.738320 18.739695
RightToeBase 13.026389 -0.000000 -0.000000
